<svg xmlns="http://www.w3.org/2000/svg"><symbol id="sprite-arrow-down" viewBox="0 0 12.149 14.627"><title>arrow-down</title><path d="M4.928.822 4.933.8v9.788L1.849 7.51a.808.808 0 0 0-1.136 0l-.48.48a.801.801 0 0 0 0 1.13l5.274 5.274a.806.806 0 0 0 1.135 0l5.274-5.274a.802.802 0 0 0 0-1.13l-.479-.48a.792.792 0 0 0-.565-.232.769.769 0 0 0-.554.233l-3.101 3.112V.81A.829.829 0 0 0 6.396 0h-.678a.813.813 0 0 0-.79.822Z" fill="currentColor"/></symbol><symbol fill="currentColor" id="sprite-arrow-next" viewBox="0 0 16 16"><title>arrow-next</title><path fill-rule="evenodd" d="M1 8a.5.5 0 0 1 .5-.5h11.793l-3.147-3.146a.5.5 0 0 1 .708-.708l4 4a.5.5 0 0 1 0 .708l-4 4a.5.5 0 0 1-.708-.708L13.293 8.5H1.5A.5.5 0 0 1 1 8z"/></symbol><symbol fill="currentColor" id="sprite-arrow-prev" viewBox="0 0 16 16"><title>arrow-prev</title><path fill-rule="evenodd" d="M15 8a.5.5 0 0 0-.5-.5H2.707l3.147-3.146a.5.5 0 1 0-.708-.708l-4 4a.5.5 0 0 0 0 .708l4 4a.5.5 0 0 0 .708-.708L2.707 8.5H14.5A.5.5 0 0 0 15 8z"/></symbol><symbol fill="none" id="sprite-checkmark" viewBox="0 0 21 21"><title>checkmark</title><path d="M7.596 21c-.65 0-1.27-.29-1.697-.8L.538 13.786a2.331 2.331 0 0 1 .242-3.23 2.195 2.195 0 0 1 3.15.249l3.506 4.192L18.514 1.3c1.715-2.463 3.51-1.1 1.787 1.374L9.413 20.041A2.221 2.221 0 0 1 7.596 21Z" fill="#F9AD70"/></symbol><symbol fill="none" id="sprite-checkmark2" viewBox="0 0 18 18"><title>checkmark2</title><path d="M9 0C4.037 0 0 4.037 0 9s4.037 9 9 9 9-4.037 9-9-4.037-9-9-9ZM7.875 13.403 4.267 9.795l1.59-1.59 2.018 2.017 4.267-4.267 1.59 1.59-5.857 5.858Z" fill="#722376"/></symbol><symbol id="sprite-close2" viewBox="0 0 19.995 20"><title>close2</title><path d="m19.502.489.001.001a1.666 1.666 0 0 1 .008 2.357L2.846 19.51a1.667 1.667 0 0 1-2.358-2.358l7.15-7.157-7.15-7.157a1.666 1.666 0 0 1 2.35-2.35l7.157 7.15 7.149-7.15h.001a1.666 1.666 0 0 1 2.357 0Zm-4.996 11.665 4.999 5a1.667 1.667 0 1 1-2.358 2.358l-5-5a1.667 1.667 0 0 1 2.358-2.357Z" fill="currentColor" fill-rule="evenodd"/></symbol><symbol id="sprite-input-phone" viewBox="0 0 75 70"><title>input-phone</title><path fill="#e5eded" d="M0 0h75v70H0z"/><path d="M49.191 38.91a14.712 14.712 0 0 1-4.541-.71 2.105 2.105 0 0 0-2.019.418l-2.864 2.122a15.682 15.682 0 0 1-7.115-6.983l2.098-2.738a1.994 1.994 0 0 0 .506-2.048 13.977 13.977 0 0 1-.726-4.465 2.027 2.027 0 0 0-2.044-2.006H27.81a2.027 2.027 0 0 0-2.044 2.006A23.239 23.239 0 0 0 49.191 47.5a2.027 2.027 0 0 0 2.044-2.006v-4.578a2.027 2.027 0 0 0-2.044-2.006Z" fill="#c0cdcd"/></symbol><symbol id="sprite-minus" viewBox="0 0 15 2"><title>minus</title><path fill="currentColor" d="M0 0h15v2H0z"/></symbol><symbol fill="none" id="sprite-phone" viewBox="0 0 23 23"><title>phone</title><path d="M16.84 14.651a.861.861 0 0 0-1.216 0l-.861.862a1.87 1.87 0 0 1-2.585 0l-4.583-4.524a2.101 2.101 0 0 1 0-2.98l.68-.767a.456.456 0 0 0 .052-.087.81.81 0 0 0 .422-.275.862.862 0 0 0-.13-1.206l-4.031-3.3a.862.862 0 0 0-1.155.06l-.861.862a8.788 8.788 0 0 0 0 12.423l4.73 4.748a8.693 8.693 0 0 0 12.268 0l.922-.922a.863.863 0 0 0 0-1.224l-3.653-3.67Zm1.507 4.584a6.961 6.961 0 0 1-9.822 0l-4.721-4.722a7.065 7.065 0 0 1 0-9.977l.301-.301L6.802 6.38l-.396.457a3.808 3.808 0 0 0 0 5.376l4.549 4.549a3.532 3.532 0 0 0 5.014 0l.284-.285 2.438 2.439-.344.319Zm-.819-9.03c.655-.99.345-1.835-1.3-3.446-1.646-1.61-2.482-1.956-3.447-1.3a.882.882 0 0 1-.982-1.465c2.49-1.646 4.618.49 5.652 1.516 1.034 1.025 3.136 3.162 1.516 5.652a.861.861 0 0 1-.715.379.862.862 0 0 1-.482-.138.863.863 0 0 1-.242-1.198Zm3.86 3.447a.86.86 0 0 1-.672.318.862.862 0 0 1-.543-.19.861.861 0 0 1-.129-1.205c2.783-3.447 0-6.97-1.378-8.314-1.379-1.344-4.834-4.162-8.314-1.379a.862.862 0 0 1-1.077-1.344c3.118-2.498 7.185-1.921 10.614 1.5 3.429 3.42 3.998 7.53 1.5 10.648v-.034Z" fill="currentColor"/></symbol><symbol id="sprite-plus" viewBox="0 0 15 15"><title>plus</title><path fill="currentColor" d="M6.5 0h2v15h-2z"/><path fill="currentColor" d="M0 6.5h15v2H0z"/></symbol><symbol fill="none" id="sprite-polygon" viewBox="0 0 41 34"><title>polygon</title><path d="M4.65 0 0 34 41 0H4.65Z" fill="currentColor"/></symbol><symbol id="sprite-social-facebook" viewBox="0 0 68 68"><title>social-facebook</title><circle cx="34" cy="34" r="33.5" fill="none" stroke="#f1eaf1"/><path d="M34 17a17 17 0 1 0 17 17 17.02 17.02 0 0 0-17-17Zm4.228 17.599h-2.766v9.857h-4.098v-9.858h-1.948v-3.484h1.948v-2.253a3.844 3.844 0 0 1 4.136-4.136l3.037.012v3.382h-2.205a.835.835 0 0 0-.869.949v2.047h3.123Z" fill="#afafb9"/></symbol><symbol id="sprite-social-instagram" viewBox="0 0 69 68"><title>social-instagram</title><path d="M68.5 34c0 18.495-15.215 33.5-34 33.5S.5 52.495.5 34 15.715.5 34.5.5s34 15.005 34 33.5Z" fill="none" stroke="#f1eaf1"/><path d="M41.248 19.287H27.752a7.974 7.974 0 0 0-7.965 7.965v13.496a7.974 7.974 0 0 0 7.965 7.965h13.496a7.974 7.974 0 0 0 7.965-7.965V27.252a7.974 7.974 0 0 0-7.965-7.965ZM34.5 42.046A8.046 8.046 0 1 1 42.546 34a8.055 8.055 0 0 1-8.046 8.046Zm8.238-14.194a2.378 2.378 0 1 1 2.378-2.378 2.38 2.38 0 0 1-2.378 2.378Zm-8.238-.173A6.32 6.32 0 1 0 40.82 34a6.328 6.328 0 0 0-6.32-6.32Zm7.586-2.205a.652.652 0 1 1 .652.652.653.653 0 0 1-.652-.652Z" fill="#afafb9" fill-rule="evenodd"/></symbol><symbol id="sprite-social-vk" viewBox="0 0 68 68"><title>social-vk</title><path d="M49.803 42.652a15.255 15.255 0 0 0-3.398-3.931c-2.866-2.66-2.481-2.229.97-6.829 2.103-2.802 2.944-4.513 2.68-5.244-.25-.697-1.796-.513-1.796-.513l-5.141.03a1.175 1.175 0 0 0-.665.117 1.448 1.448 0 0 0-.454.552 29.787 29.787 0 0 1-1.9 4.012c-2.292 3.89-3.209 4.096-3.583 3.854-.87-.562-.652-2.263-.652-3.469 0-3.77.57-5.342-1.115-5.749a8.826 8.826 0 0 0-2.401-.24 11.105 11.105 0 0 0-4.27.437c-.585.287-1.036.926-.76.962a2.306 2.306 0 0 1 1.518.764 4.955 4.955 0 0 1 .509 2.329s.304 4.438-.708 4.99c-.695.379-1.647-.394-3.69-3.925a32.922 32.922 0 0 1-1.836-3.807 1.518 1.518 0 0 0-.424-.57 2.132 2.132 0 0 0-.791-.32l-4.89.03s-.733.022-1.002.34c-.24.285-.02.87-.02.87s3.829 8.956 8.162 13.47a11.744 11.744 0 0 0 8.488 3.868h2.045a1.723 1.723 0 0 0 .932-.409 1.489 1.489 0 0 0 .28-.898s-.04-2.744 1.234-3.148c1.256-.398 2.868 2.652 4.577 3.826a3.237 3.237 0 0 0 2.273.693l4.57-.064s2.392-.148 1.258-2.028Z" fill="#afafb9"/><circle cx="34" cy="34" r="33.5" fill="none" stroke="#f1eaf1"/></symbol><symbol id="sprite-social-whatsapp" viewBox="0 0 68 68"><title>social-whatsapp</title><path d="M34.004 17h-.008A17.27 17.27 0 0 0 16.5 34a16.552 16.552 0 0 0 3.332 9.964L17.65 50.28l6.726-2.089A17.715 17.715 0 0 0 34.004 51 17.272 17.272 0 0 0 51.5 34a17.272 17.272 0 0 0-17.496-17Zm10.183 24.006c-.422 1.158-2.098 2.119-3.434 2.4-.915.188-2.109.34-6.13-1.28-5.142-2.07-8.454-7.146-8.712-7.476-.248-.33-2.079-2.688-2.079-5.127a5.364 5.364 0 0 1 1.79-4.138 2.588 2.588 0 0 1 1.79-.61c.216 0 .41.01.585.02.515.02.773.05 1.112.839.422.988 1.45 3.427 1.573 3.678a.987.987 0 0 1 .074.92 2.938 2.938 0 0 1-.567.78c-.258.29-.503.51-.76.82-.237.27-.504.56-.207 1.058a15.16 15.16 0 0 0 2.84 3.428 12.954 12.954 0 0 0 4.104 2.459 1.131 1.131 0 0 0 1.233-.19 20.644 20.644 0 0 0 1.368-1.759.992.992 0 0 1 1.255-.37c.473.16 2.973 1.36 3.487 1.609.514.25.853.37.978.58a4.12 4.12 0 0 1-.3 2.36Z" fill="#afafb9"/><path d="M67.5 34A33.5 33.5 0 1 1 34 .5 33.5 33.5 0 0 1 67.5 34Z" fill="none" stroke="#f1eaf1"/></symbol><symbol id="sprite-social-youtube" viewBox="0 0 68 68"><title>social-youtube</title><path d="M50.3 25.755a4.277 4.277 0 0 0-2.997-3.021C44.643 22 34 22 34 22s-10.642 0-13.303.706a4.364 4.364 0 0 0-2.997 3.05A45.61 45.61 0 0 0 17 34a45.441 45.441 0 0 0 .7 8.245 4.278 4.278 0 0 0 2.997 3.02C23.385 46 34 46 34 46s10.642 0 13.303-.706a4.277 4.277 0 0 0 2.997-3.021 45.623 45.623 0 0 0 .7-8.245s.028-5.59-.7-8.273ZM30.611 39.14V28.86l8.85 5.14Z" fill="#afafb9"/><circle cx="34" cy="34" r="33.5" fill="none" stroke="#f1eaf1"/></symbol><symbol id="sprite-splash-left-p" viewBox="0 0 15.455 27.54"><title>splash-left-p</title><path d="M13.2 11.997h-12a1.251 1.251 0 0 0 0 2.5h12a1.251 1.251 0 0 0 0-2.5Zm.1 6.9-6.5 6.5c-1.1 1.1.6 2.9 1.8 1.8l6.5-6.5c1.1-1.2-.6-3-1.8-1.8Zm-.2-13c-1.8-1.9-3.7-3.7-5.5-5.5-1.1-1.2-2.9.6-1.8 1.7l5.5 5.5a1.238 1.238 0 0 0 1.8-1.7Z" fill="currentColor"/></symbol><symbol id="sprite-splash-right-p" viewBox="0 0 15.443 27.498"><title>splash-right-p</title><path d="M2.243 15.543h12a1.251 1.251 0 0 0 0-2.5h-12a1.251 1.251 0 0 0 0 2.5Zm-.1-6.9 6.5-6.5c1.1-1.1-.6-2.9-1.8-1.8l-6.5 6.5c-1.1 1.2.7 3 1.8 1.8Zm.2 13 5.5 5.5c1.1 1.1 2.9-.6 1.8-1.8l-5.5-5.5c-1.1-1.1-2.9.7-1.8 1.8Z" fill="currentColor"/></symbol><symbol id="sprite-whatsapp" viewBox="0 0 46.796 47"><title>whatsapp</title><path d="M1 47a1 1 0 0 1-.965-1.264l3.056-11.158a23.306 23.306 0 1 1 20.4 12.036h-.01a23.35 23.35 0 0 1-10.783-2.648L1.254 46.967A1.009 1.009 0 0 1 1 47Z" fill="#e5e5e5"/><path d="m1 46 3.164-11.555a22.305 22.305 0 1 1 19.328 11.169h-.01a22.285 22.285 0 0 1-10.658-2.715Zm12.371-7.137.678.401a18.514 18.514 0 0 0 9.436 2.584h.007a18.537 18.537 0 1 0-15.705-8.686l.441.701-1.873 6.84Z" fill="#fff"/><path d="M10.79 42.858a5.38 5.38 0 0 1-6.553-6.626 6.23 6.23 0 0 0-.426-4.166A21.534 21.534 0 1 1 23.49 44.848h-.01a21.551 21.551 0 0 1-8.307-1.668 6.442 6.442 0 0 0-4.11-.394Z" fill="#16c512"/><path d="m1 46 3.164-11.555a22.305 22.305 0 1 1 19.328 11.169h-.01a22.285 22.285 0 0 1-10.658-2.715Zm12.371-7.137.678.401a18.514 18.514 0 0 0 9.436 2.584h.007a18.537 18.537 0 1 0-15.705-8.686l.441.701-1.873 6.84Z" fill="#fff"/><path d="M17.918 13.976c-.417-.928-.857-.947-1.254-.963-.326-.014-.698-.013-1.069-.013a2.048 2.048 0 0 0-1.486.698 6.247 6.247 0 0 0-1.951 4.647c0 2.742 1.997 5.392 2.276 5.764s3.855 6.179 9.52 8.413c4.708 1.857 5.665 1.487 6.687 1.394s3.298-1.348 3.762-2.65a4.654 4.654 0 0 0 .325-2.65c-.14-.232-.51-.371-1.068-.65s-3.297-1.627-3.808-1.813-.883-.278-1.254.28-1.44 1.812-1.764 2.184-.65.419-1.208.14a15.237 15.237 0 0 1-4.482-2.767 16.791 16.791 0 0 1-3.1-3.859c-.325-.557-.006-.833.245-1.137a16.82 16.82 0 0 0 1.392-1.905 1.027 1.027 0 0 0-.046-.977c-.14-.278-1.222-3.034-1.717-4.136Z" fill="#fff" fill-rule="evenodd"/></symbol></svg>