<svg width="52" height="43" viewBox="0 0 52 43" fill="none" xmlns="http://www.w3.org/2000/svg">
<path opacity="0.5" fill-rule="evenodd" clip-rule="evenodd" d="M23.7781 4.54782V3.44283C23.7781 2.73497 24.2151 2.10034 24.8777 1.8516C26.966 1.06702 31.0016 0 37.5053 0C44.0085 0 48.0437 1.06663 50.1317 1.85121C50.7942 2.10034 51.2313 2.73497 51.2313 3.44283V17.738C51.2313 25.6368 45.8326 32.4547 38.2515 34.3299C37.759 34.4516 37.2449 34.4504 36.7528 34.3284C36.329 34.223 35.9117 34.1021 35.5018 33.9665C36.3724 30.712 36.4285 27.2412 35.5851 23.8782C37.809 23.1928 40.3317 23.7271 42.0887 25.4838C42.3843 25.7798 42.7726 25.9278 43.1604 25.9278C43.5765 25.9278 43.9926 25.7577 44.2952 25.4175C44.8369 24.8085 44.7725 23.8732 44.1929 23.3005C41.6005 20.7376 37.8904 19.9735 34.6285 21.0022C34.5184 20.7387 34.4026 20.4764 34.2802 20.2161L31.3832 14.0414C31.4693 14.0456 31.5553 14.048 31.6417 14.048C32.9857 14.048 34.2492 13.5245 35.1992 12.5741C35.8726 11.9007 35.7804 10.7516 34.9218 10.2092C34.3212 9.82947 33.544 9.95539 33.0345 10.4505C32.5409 10.9306 31.8424 11.1262 31.1384 10.9546C30.7858 10.8686 30.4747 10.6702 30.2147 10.4168C30.0094 10.2165 29.761 10.0879 29.5003 10.0271L27.3453 5.4343C27.133 4.98176 26.7114 4.66289 26.2178 4.58231C26.1326 4.56836 25.3116 4.44399 23.7781 4.54782ZM42.6819 10.4304C42.0895 9.83838 41.1298 9.83838 40.5378 10.4304C39.9458 11.0224 39.9458 11.9821 40.5374 12.5741C41.4878 13.5245 42.7513 14.048 44.0949 14.048C45.439 14.048 46.702 13.5245 47.6524 12.5741C48.2444 11.9821 48.2444 11.0224 47.6524 10.4304C47.0604 9.83799 46.1003 9.83799 45.5083 10.4304C45.1309 10.8078 44.6288 11.0158 44.0949 11.0158C43.561 11.0158 43.0593 10.8078 42.6819 10.4304ZM25.4314 8.49346L31.5355 21.5038C34.8904 28.6549 32.8986 37.1206 26.8312 42.038C26.4391 42.3561 25.9757 42.5735 25.4806 42.6719C17.8204 44.1945 10.0362 40.3151 6.68136 33.1644L0.609715 20.2226C0.309058 19.5817 0.435365 18.8216 0.929357 18.3148C2.4865 16.7177 5.68679 14.0378 11.5748 11.2753C17.5298 8.48145 21.6642 7.75034 23.8684 7.58374C24.5282 7.53376 25.1505 7.89447 25.4314 8.49346ZM25.7095 17.512C23.1005 16.569 20.2109 17.925 19.2683 20.5341C18.9835 21.3214 19.3915 22.1904 20.1788 22.4752C20.3489 22.5368 20.5228 22.5658 20.6941 22.5658C21.3148 22.5658 21.8967 22.1819 22.1199 21.5643C22.4945 20.5279 23.6425 19.9893 24.6789 20.3636C25.4666 20.6484 26.3356 20.2404 26.62 19.4531C26.9044 18.6654 26.4968 17.7964 25.7095 17.512ZM11.8766 25.7235C12.3601 25.4965 12.9029 25.4717 13.4051 25.653C14.1924 25.9374 15.0614 25.5298 15.3462 24.7425C15.6306 23.9548 15.223 23.0858 14.4353 22.8014C13.1714 22.3446 11.8057 22.4078 10.5887 22.9785C9.37216 23.5492 8.45082 24.5596 7.99402 25.8235C7.70964 26.6111 8.11723 27.4802 8.9049 27.7646C9.07499 27.8258 9.24895 27.8552 9.41982 27.8552C10.0405 27.8552 10.6228 27.4713 10.846 26.8537C11.0273 26.3516 11.3935 25.9502 11.8766 25.7235ZM15.2718 34.9962C16.3361 35.3809 17.4244 35.563 18.4957 35.563C22.3915 35.563 26.0551 33.1508 27.4534 29.2814C27.7378 28.4937 27.3302 27.6247 26.5429 27.3399C25.7553 27.0555 24.8862 27.4631 24.6018 28.2508C23.3872 31.6123 19.6639 33.3593 16.302 32.1446C15.5143 31.8599 14.6457 32.2678 14.3609 33.0551C14.0765 33.8428 14.4841 34.7118 15.2718 34.9962Z" fill="white"/>
</svg>
