<svg width="37" height="42" viewBox="0 0 37 42" fill="none" xmlns="http://www.w3.org/2000/svg">
<path opacity="0.5" d="M2.10533e-05 15.6355V37.2283C1.82753e-05 37.8561 0.124534 38.4778 0.366434 39.0576C0.608333 39.6375 0.962859 40.1641 1.4097 40.6074C1.85653 41.0507 2.38689 41.4019 2.97039 41.6408C3.55388 41.8798 4.17903 42.0018 4.81002 42H32.2042C33.4761 42 34.696 41.4972 35.5953 40.6024C36.4947 39.7075 37 38.4938 37 37.2283V15.6355C37 14.3687 36.4952 13.1535 35.5962 12.2564C34.6972 11.3593 33.4775 10.8534 32.2042 10.8497H29.1588C29.5788 10.4187 29.951 9.94399 30.2689 9.43377C30.8774 8.41979 31.2128 7.26679 31.2427 6.08616C31.2726 4.90554 30.996 3.73719 30.4396 2.69398C29.9556 1.85302 29.2512 1.15859 28.4016 0.684785C27.5519 0.210983 26.589 -0.024408 25.6154 0.00373079C24.5492 -0.0300844 23.4883 0.166303 22.5056 0.579383C21.523 0.992462 20.6419 1.61243 19.9231 2.39664C19.3545 2.99563 18.8752 3.67274 18.5 4.40725C18.1467 3.67708 17.6916 3.00019 17.1481 2.39664C16.4292 1.61243 15.5482 0.992462 14.5656 0.579383C13.5829 0.166303 12.522 -0.0300844 11.4558 0.00373079C10.4818 -0.0253311 9.51799 0.208003 8.6663 0.679063C7.81461 1.15012 7.10667 1.84141 6.61732 2.67982C6.06092 3.72303 5.78431 4.89138 5.81422 6.072C5.84414 7.25263 6.17956 8.40563 6.78809 9.41961C7.10598 9.92983 7.47812 10.4045 7.89809 10.8355H4.81002C4.17716 10.8355 3.55052 10.9598 2.96602 11.2012C2.38151 11.4426 1.85063 11.7964 1.4038 12.2423C0.956959 12.6882 0.602954 13.2174 0.362068 13.7997C0.121181 14.382 -0.0018513 15.0058 2.10533e-05 15.6355ZM17.0769 37.7522L17.1623 15.0975C17.1623 14.7219 17.3122 14.3618 17.5791 14.0963C17.846 13.8307 18.208 13.6815 18.5854 13.6815C18.9628 13.6815 19.3248 13.8307 19.5917 14.0963C19.8585 14.3618 20.0085 14.7219 20.0085 15.0975L19.9231 37.7522C19.9231 38.1277 19.7732 38.4879 19.5063 38.7534C19.2394 39.019 18.8774 39.1681 18.5 39.1681C18.1226 39.1681 17.7606 39.019 17.4937 38.7534C17.2269 38.4879 17.0769 38.1277 17.0769 37.7522ZM25.6154 2.83558C26.0903 2.80373 26.5647 2.90491 26.9847 3.12764C27.4048 3.35038 27.7537 3.68575 27.9919 4.09575C28.3048 4.70705 28.4522 5.38888 28.4198 6.0741C28.3873 6.75933 28.1761 7.42435 27.8069 8.00369C27.195 9.06563 25.5869 10.8355 21.7162 10.8355H19.9231C19.9231 9.12227 20.2504 6.07804 21.9012 4.27982C22.374 3.78027 22.9525 3.39155 23.5949 3.14177C24.2373 2.892 24.9274 2.78741 25.6154 2.83558ZM9.20732 8.00369C8.83812 7.42435 8.6269 6.75933 8.59447 6.0741C8.56203 5.38888 8.70949 4.70705 9.02232 4.09575C9.25947 3.68801 9.60614 3.35411 10.0234 3.13151C10.4407 2.90891 10.9121 2.80644 11.3846 2.83558C12.0588 2.7944 12.7338 2.89972 13.3629 3.14423C13.992 3.38874 14.5601 3.76658 15.0277 4.2515C16.6927 6.0922 16.9916 9.13643 17.0769 10.8497H15.2981C11.3846 10.8497 9.81925 9.06563 9.20732 8.00369Z" fill="white"/>
</svg>
