<svg xmlns="http://www.w3.org/2000/svg" width="40" height="35.1563" viewBox="0 0 40 35.1563">
  <path d="M34.1407,0H5.8593A5.8689,5.8689,0,0,0,.1186,4.6875H39.8815A5.869,5.869,0,0,0,34.1407,0ZM0,11.7186H40V7.0311H0Zm23.5156,5.86V14.0625H16.4843v3.5157a3.5157,3.5157,0,0,0,7.0313,0Zm-4.6874,0A1.1719,1.1719,0,1,1,20,18.75,1.1718,1.1718,0,0,1,18.8282,17.578ZM7.0313,18.75h7.2279a5.8592,5.8592,0,0,0,11.4817,0h7.228V28.125H7.0313Zm27.1094-2.3439H25.8594V14.0625H40V33.9843a1.1713,1.1713,0,0,1-1.1719,1.172H1.1719A1.1712,1.1712,0,0,1,0,33.9843V14.0625H14.1406v2.3437H5.8593a1.1712,1.1712,0,0,0-1.1719,1.1719V29.2969a1.1712,1.1712,0,0,0,1.1719,1.1719H34.1406a1.1712,1.1712,0,0,0,1.1719-1.1719V17.5781A1.1712,1.1712,0,0,0,34.1407,16.4062Z" fill="#fff" fill-rule="evenodd" opacity="0.5" style="isolation: isolate"/>
</svg>
