<svg width="40" height="45" viewBox="0 0 40 45" fill="none" xmlns="http://www.w3.org/2000/svg">
<path opacity="0.5" fill-rule="evenodd" clip-rule="evenodd" d="M21.8105 7.99596C30.0194 7.99342 30.1757 7.99337 30.3229 8.03006L30.3315 8.03224L30.3315 8.03224C30.3444 8.03551 30.3583 8.03906 30.3785 8.0429L30.3363 5.70061C30.3292 2.55587 27.769 0 24.6234 0H7.92408C7.19634 0 6.60572 0.590627 6.60572 1.31836C6.60572 1.62467 6.60236 1.92355 6.59907 2.2164C6.57379 4.46841 6.55251 6.36367 8.09195 8.53333C8.53404 8.19671 9.08512 7.99808 9.6819 7.99808C14.9754 7.99808 18.8982 7.99686 21.8089 7.99596H21.8098H21.8105ZM39.1118 43.4929L37.7641 34.1765C37.6787 33.5859 37.2072 33.1263 36.6145 33.056L29.4845 32.2109V37.6074C29.4845 39.71 27.774 41.4205 25.6714 41.4205C23.8979 41.4205 21.5475 41.0552 19.7894 40.2081C18.0551 41.0437 15.7137 41.4205 13.9073 41.4205C11.8048 41.4205 10.0942 39.71 10.0942 37.6074V32.2409L2.92511 33.1451C2.3358 33.2194 1.86892 33.6786 1.78498 34.2667L0.46662 43.4952C0.353065 44.2897 0.970675 45 1.77171 45H37.807C38.6107 45 39.2266 44.2865 39.1118 43.4929ZM13.8671 30.5909C14.2854 30.5764 17.9006 30.5023 19.7894 32.0994C21.6781 30.5022 25.293 30.5762 25.7116 30.5909C26.3453 30.6126 26.8478 31.1325 26.8478 31.7666V37.6074C26.8478 38.2571 26.3211 38.7838 25.6714 38.7838C23.8876 38.7838 21.2291 38.3539 19.7894 37.093C18.3529 38.3511 15.7022 38.7838 13.9074 38.7838C13.2577 38.7838 12.7309 38.2571 12.7309 37.6074V31.7666C12.7309 31.1325 13.2334 30.6126 13.8671 30.5909ZM17.0927 17.2267C17.4908 17.2267 17.8393 16.959 17.9419 16.5743L18.1368 15.8435C18.5861 14.157 21.0127 14.1822 21.4122 15.8946L21.5645 16.5476C21.6573 16.9454 22.0119 17.2268 22.4204 17.2268H29.0179C29.5033 17.2268 29.8968 16.8333 29.8968 16.3479V11.5139C29.8968 11.0284 29.5033 10.635 29.0179 10.635H10.5608C10.0754 10.635 9.6819 11.0284 9.6819 11.5139V16.3479C9.6819 16.8333 10.0754 17.2268 10.5608 17.2268H17.0927V17.2267ZM30.2058 19.846C30.2213 19.8436 30.2368 19.8409 30.258 19.8379C29.6328 24.9849 25.247 29.092 19.7894 29.092C14.3348 29.092 9.94364 24.987 9.31979 19.8379C9.34086 19.8409 9.35638 19.8436 9.37194 19.846C9.54614 19.8726 9.72582 19.8634 17.7679 19.8634C18.5413 19.8634 19.2541 19.525 19.7437 18.9722C20.2297 19.5259 20.9407 19.8634 21.723 19.8634C29.8568 19.8634 30.034 19.8726 30.2058 19.846ZM18.471 25.0789H21.1077C21.8355 25.0789 22.4261 24.4891 22.4261 23.7605C22.4261 23.0328 21.8355 22.4421 21.1077 22.4421H18.471C17.7433 22.4421 17.1526 23.0328 17.1526 23.7605C17.1526 24.4891 17.7433 25.0789 18.471 25.0789Z" fill="white"/>
</svg>
