<svg xmlns="http://www.w3.org/2000/svg" width="16" height="16" fill="none">
  <g clip-path="url(#clip0)">
    <path fill="#0063C8" d="M16 5.8l-.4-.1H14c-.4-1-.9-2-1.4-2.4-2-1.3-7.2-1.3-9.2 0-.5.4-1 1.4-1.4 2.4H.4a.4.4 0 0 0-.4.5l.2 1.1c0 .2.2.3.4.3h.5C.7 8.1.4 8.8.4 9.4c0 .8.3 1.6.9 2V13c0 .4.3.7.6.7h1.5c.3 0 .6-.3.6-.7v-.6h8v.6c0 .4.3.7.6.7h1.5c.3 0 .6-.3.6-.7v-1.5a2.8 2.8 0 0 0 .2-3.9h.5c.2 0 .3-.1.4-.3l.2-1.1v-.4zM4 4.3c1.6-1 6.2-1 7.8 0 .3.2.7 1 1 2H3c.4-1 .8-1.8 1.1-2zM2.3 9.6a1.2 1.2 0 1 1 2.4 0 1.2 1.2 0 0 1-2.4 0zm10.2 1.2a1.2 1.2 0 1 1 0-2.4 1.2 1.2 0 0 1 0 2.4z"/>
  </g>
  <defs>
    <clipPath id="clip0">
      <path fill="#fff" d="M0 0h16v16H0z"/>
    </clipPath>
  </defs>
</svg>