<svg xmlns="http://www.w3.org/2000/svg" width="16" height="16" fill="none">
  <g clip-path="url(#clip0)">
    <path fill="#0063C8" d="M15.6 12.6l-2.4-2.4c-.5-.5-1.3-.5-1.8 0L10 11.5l-.2-.2c-.8-.4-1.9-1-3-2.2-1.2-1-1.8-2.2-2.2-3L4.6 6l.8-.8.4-.4c.5-.5.5-1.4 0-1.9L3.4.4C2.9-.1 2-.1 1.6.4l-.7.7a4 4 0 0 0-.8 2C-.3 6 1 8.4 4.3 11.8 9 16.3 12.7 16 12.8 16a4.2 4.2 0 0 0 2-.9h.1l.7-.6c.5-.5.5-1.4 0-1.9z"/>
  </g>
  <defs>
    <clipPath id="clip0">
      <path fill="#fff" d="M0 0h16v16H0z"/>
    </clipPath>
  </defs>
</svg>