<svg xmlns="http://www.w3.org/2000/svg" width="26" height="26" fill="none">
  <symbol id="phone" viewBox="0 0 26 26">
    <g id="Lozenge">
        <g>
            <path fill="url(#paint0_linear)" d="M20.5 16.1c-.5-.5-1.1-.8-1.8-.8s-1.3.2-1.9.8l-1.7 1.7-.4-.2-.6-.3a18.8 18.8 0 0 1-6-6.4l1.3-1.3.5-.5C11 8 11 6.5 9.9 5.4L8.4 3.9l-.6-.6-1-1c-.5-.5-1.2-.8-1.8-.8-.7 0-1.3.3-1.9.8L1.2 4.2A4 4 0 0 0 0 6.8c0 1.6.4 3 .7 4a25.8 25.8 0 0 0 12.8 13.7 13.4 13.4 0 0 0 5.2 1.5c1.3 0 2.3-.5 3.2-1.4l1-1 .7-.7c.5-.6.8-1.2.8-1.9s-.3-1.3-.8-1.9l-3-3zm2 5.8l-.7.7-1 1c-.6.6-1.2 1-2 1h-.3c-1.7-.2-3.2-.8-4.3-1.4a24.4 24.4 0 0 1-12-12.9A7.8 7.8 0 0 1 1.4 7c0-.7.3-1.2.8-1.7l1.9-1.8c.2-.3.5-.4.8-.4.3 0 .6.2.8.4l1 1 .5.5 1.5 1.5c.6.6.6 1.1 0 1.7l-.5.5L7 9.9c-.5.5-.5 1-.4 1.3.5 1 1 1.9 1.8 3a20.1 20.1 0 0 0 5.6 4.7l.5.3h.1c.2.2.4.2.5.2.5 0 .8-.3.9-.4l1.9-1.9c.1-.1.4-.4.8-.4.3 0 .6.2.8.4l3 3c.6.6.6 1.2 0 1.8z"></path>
            <path fill="url(#paint1_linear)" d="M14 6.2a7 7 0 0 1 5.8 5.8c0 .3.4.6.7.6h.2c.4-.1.6-.5.6-1a8.5 8.5 0 0 0-7-6.9c-.4 0-.8.2-.8.6-.1.4.1.8.6.9z"></path>
            <path fill="url(#paint2_linear)" d="M26 11.5A14 14 0 0 0 14.5 0a.7.7 0 1 0-.2 1.5 12.5 12.5 0 0 1 10.2 10.2c0 .4.4.6.7.6h.2c.4 0 .6-.4.6-.8z"></path>
        </g>
    </g>
    <defs>
      <linearGradient id="paint0_linear" x1="12.2" x2="12.2" y1="1.5" y2="26" gradientUnits="userSpaceOnUse">
        <stop stop-color="#0063C8"></stop>
        <stop offset="1" stop-color="#D90306"></stop>
      </linearGradient>
      <linearGradient id="paint1_linear" x1="17.4" x2="17.4" y1="4.7" y2="12.6" gradientUnits="userSpaceOnUse">
        <stop stop-color="#0063C8"></stop>
        <stop offset="1" stop-color="#D90306"></stop>
      </linearGradient>
      <linearGradient id="paint2_linear" x1="19.8" x2="19.8" y2="12.3" gradientUnits="userSpaceOnUse">
        <stop stop-color="#0063C8"></stop>
        <stop offset="1" stop-color="#D90306"></stop>
      </linearGradient>
    </defs>
  </symbol>
</svg>
