<svg viewBox="0 0 20 12" fill="none" xmlns="http://www.w3.org/2000/svg">
  <path d="M18.9976 10.1259C18.9755 10.0784 18.955 10.0392 18.936 10.0075C18.6205 9.4394 18.0177 8.74207 17.1279 7.91528L17.1091 7.89637L17.0996 7.88704L17.09 7.87758H17.0806C16.6767 7.49261 16.421 7.23371 16.3138 7.10122C16.1179 6.84874 16.074 6.59322 16.1811 6.33431C16.2567 6.13868 16.541 5.72558 17.0331 5.09431C17.292 4.75977 17.497 4.49177 17.6483 4.2897C18.7402 2.83807 19.2137 1.91055 19.0683 1.50655L19.012 1.41213C18.974 1.35528 18.8762 1.3034 18.7187 1.25589C18.5607 1.20861 18.3589 1.20073 18.1126 1.23237L15.3864 1.25116C15.3422 1.23552 15.2791 1.23698 15.197 1.25589C15.1149 1.27492 15.0738 1.28437 15.0738 1.28437L15.0264 1.30813L14.9887 1.33661C14.9572 1.3554 14.9224 1.38861 14.8846 1.43589C14.8469 1.48304 14.8154 1.53843 14.7902 1.60158C14.4933 2.36522 14.1559 3.07516 13.7771 3.73152C13.5436 4.1228 13.3291 4.46195 13.1332 4.74922C12.9377 5.03625 12.7736 5.24777 12.6412 5.38328C12.5085 5.51904 12.3888 5.62777 12.2813 5.70995C12.174 5.79201 12.0921 5.8268 12.0354 5.81407C11.9784 5.80134 11.925 5.78874 11.8742 5.77613C11.7859 5.71928 11.7149 5.64207 11.6613 5.54425C11.6076 5.44643 11.5714 5.32328 11.5525 5.17504C11.5336 5.02655 11.5224 4.89892 11.5193 4.79164C11.5164 4.68437 11.5177 4.53274 11.5241 4.33722C11.5307 4.14146 11.5336 4.00898 11.5336 3.93952C11.5336 3.69977 11.5383 3.4394 11.5476 3.15855C11.5572 2.8777 11.565 2.65516 11.5714 2.49128C11.5778 2.32716 11.5808 2.15358 11.5808 1.97055C11.5808 1.78752 11.5697 1.64401 11.5476 1.53977C11.5259 1.43577 11.4925 1.3348 11.4485 1.23686C11.4042 1.13904 11.3395 1.0634 11.2544 1.00971C11.1693 0.956008 11.0634 0.913462 10.9373 0.881826C10.6028 0.806068 10.1768 0.765219 9.65926 0.758795C8.48544 0.746189 7.73126 0.821947 7.39671 0.986068C7.26423 1.0554 7.14435 1.15019 7.03708 1.26995C6.9235 1.40886 6.90762 1.48474 6.98968 1.4971C7.36835 1.55383 7.63647 1.68958 7.79429 1.90413L7.85114 2.01783C7.89538 2.09989 7.9395 2.2451 7.98374 2.45334C8.02787 2.66158 8.05635 2.89189 8.06884 3.14425C8.10035 3.60498 8.10035 3.9994 8.06884 4.32752C8.0372 4.65577 8.00738 4.91128 7.9789 5.09431C7.95041 5.27734 7.90787 5.4257 7.85114 5.53928C7.79429 5.65286 7.75635 5.72231 7.73744 5.74752C7.71853 5.77274 7.70277 5.78861 7.69017 5.7948C7.60811 5.82619 7.5229 5.84231 7.43453 5.84231C7.34617 5.84231 7.2389 5.79807 7.11271 5.70959C6.98653 5.62122 6.85562 5.49977 6.71987 5.34522C6.58423 5.19043 6.43114 4.97431 6.26071 4.69674C6.09029 4.41904 5.91356 4.09092 5.73065 3.71225L5.57914 3.43758C5.48447 3.26098 5.35514 3.00377 5.19114 2.66619C5.0269 2.32849 4.88181 2.00183 4.75562 1.68619C4.7052 1.5537 4.62944 1.45286 4.52847 1.3834L4.48108 1.35492C4.44956 1.3297 4.39902 1.30292 4.32968 1.27443C4.26023 1.24595 4.18775 1.22558 4.11187 1.21298L1.51809 1.23177C1.25303 1.23177 1.07319 1.29189 0.978485 1.41176L0.940595 1.46849C0.921661 1.50013 0.912109 1.55055 0.912109 1.62001C0.912109 1.68946 0.931043 1.77468 0.968946 1.87552C1.34759 2.76546 1.75937 3.62376 2.20427 4.45043C2.64916 5.27722 3.03577 5.94316 3.36387 6.44777C3.69199 6.95274 4.02653 7.42922 4.36726 7.87722C4.70811 8.32534 4.93368 8.61249 5.04411 8.73867C5.15465 8.8651 5.24144 8.95952 5.30447 9.02268L5.5412 9.24983C5.69272 9.40134 5.91514 9.5828 6.20859 9.79407C6.50217 10.0056 6.82714 10.2138 7.18362 10.4192C7.54035 10.624 7.95514 10.7913 8.42859 10.9206C8.90193 11.0501 9.36253 11.1021 9.81065 11.077H10.8994C11.1201 11.0579 11.2874 10.9885 11.4011 10.8687L11.4388 10.8212C11.4641 10.7835 11.4879 10.7251 11.5097 10.6463C11.5319 10.5674 11.5429 10.4805 11.5429 10.3859C11.5363 10.1147 11.5571 9.87019 11.6042 9.65249C11.6515 9.4348 11.7052 9.27067 11.7653 9.16013C11.8254 9.04983 11.8933 8.95661 11.9688 8.8811C12.0445 8.80534 12.0984 8.75952 12.13 8.74377C12.1614 8.72789 12.1865 8.7171 12.2054 8.71067C12.357 8.66013 12.5353 8.70898 12.7405 8.85746C12.9457 9.00583 13.138 9.18886 13.318 9.40655C13.4979 9.62437 13.714 9.86874 13.9664 10.1401C14.219 10.4115 14.4397 10.6133 14.6291 10.7461L14.8183 10.8596C14.9447 10.9354 15.1088 11.0049 15.3108 11.0679C15.5125 11.131 15.6891 11.1468 15.8408 11.1153L18.2641 11.0775C18.5037 11.0775 18.6903 11.0377 18.8227 10.959C18.9551 10.8801 19.0339 10.7932 19.0593 10.6987C19.0846 10.6041 19.086 10.4967 19.0641 10.3767C19.0417 10.257 19.0195 10.1732 18.9976 10.1259Z" fill="currentColor"/>
</svg>

