<svg xmlns="http://www.w3.org/2000/svg" width="69" height="68" viewBox="0 0 69 68">
  <g>
    <path d="M68.5,34c0,18.4947-15.2154,33.5-34,33.5S.5,52.4947.5,34,15.7154.5,34.5.5,68.5,15.5053,68.5,34Z" fill="none" stroke="#f1eaf1"/>
    <path d="M41.2477,19.2871H27.7523a7.9743,7.9743,0,0,0-7.9653,7.9653V40.7479a7.9742,7.9742,0,0,0,7.9653,7.965H41.2478a7.9741,7.9741,0,0,0,7.9651-7.965V27.2524A7.9743,7.9743,0,0,0,41.2477,19.2871ZM34.5,42.0459A8.0459,8.0459,0,1,1,42.546,34,8.0549,8.0549,0,0,1,34.5,42.0459Zm8.2383-14.1943a2.3776,2.3776,0,1,1,2.3777-2.3775A2.38,2.38,0,0,1,42.7383,27.8516ZM34.5,27.6791A6.3209,6.3209,0,1,0,40.8209,34,6.3281,6.3281,0,0,0,34.5,27.6791Zm7.5859-2.205a.6525.6525,0,1,1,.6524.6524A.6532.6532,0,0,1,42.0859,25.4741Z" fill="#afafb9" fill-rule="evenodd"/>
  </g>
</svg>
