<svg xmlns="http://www.w3.org/2000/svg" width="15.4551" height="27.5403" viewBox="0 0 15.4551 27.5403">
  <g>
    <path d="M13.4725,12.2269h-12a1.251,1.251,0,0,0,0,2.5h12A1.251,1.251,0,0,0,13.4725,12.2269Z" transform="translate(-0.2725 -0.2299)" fill="currentColor"/>
    <path d="M13.5727,19.1269l-6.5,6.5c-1.1,1.1.6,2.9,1.8,1.8l6.5-6.5C16.4727,19.7269,14.7727,17.9269,13.5727,19.1269Z" transform="translate(-0.2725 -0.2299)" fill="currentColor"/>
    <path d="M13.3728,6.1269c-1.8-1.9-3.7-3.7-5.5-5.5-1.1-1.2-2.9.6-1.8,1.7l5.5,5.5A1.2381,1.2381,0,0,0,13.3728,6.1269Z" transform="translate(-0.2725 -0.2299)" fill="currentColor"/>
  </g>
</svg>
