<svg xmlns="http://www.w3.org/2000/svg"><symbol id="sprite-arrow-down" viewBox="0 0 12.149 14.627"><title>arrow-down</title><path d="M4.928.822 4.933.8v9.788L1.849 7.51a.808.808 0 0 0-1.136 0l-.48.48a.801.801 0 0 0 0 1.13l5.274 5.274a.806.806 0 0 0 1.135 0l5.274-5.274a.802.802 0 0 0 0-1.13l-.479-.48a.792.792 0 0 0-.565-.232.769.769 0 0 0-.554.233l-3.101 3.112V.81A.829.829 0 0 0 6.396 0h-.678a.813.813 0 0 0-.79.822Z" fill="currentColor"/></symbol><symbol id="sprite-arrow-next" viewBox="0 0 24 24"><title>arrow-next</title><g data-name="Layer 2"><path d="M10 19a1 1 0 0 1-.64-.23 1 1 0 0 1-.13-1.41L13.71 12 9.39 6.63a1 1 0 0 1 .15-1.41 1 1 0 0 1 1.46.15l4.83 6a1 1 0 0 1 0 1.27l-5 6A1 1 0 0 1 10 19z" data-name="arrow-ios-forward"/></g></symbol><symbol id="sprite-arrow-prev" viewBox="0 0 24 24"><title>arrow-prev</title><g data-name="Layer 2"><path d="M13.83 19a1 1 0 0 1-.78-.37l-4.83-6a1 1 0 0 1 0-1.27l5-6a1 1 0 0 1 1.54 1.28L10.29 12l4.32 5.36a1 1 0 0 1-.78 1.64z" data-name="arrow-ios-back"/></g></symbol><symbol fill="currentColor" id="sprite-chat" viewBox="0 0 16 16"><title>chat</title><path d="M8 15c4.418 0 8-3.134 8-7s-3.582-7-8-7-8 3.134-8 7c0 1.76.743 3.37 1.97 4.6-.097 1.016-.417 2.13-.771 2.966-.079.186.074.394.273.362 2.256-.37 3.597-.938 4.18-1.234A9.06 9.06 0 0 0 8 15z"/></symbol><symbol fill="currentColor" id="sprite-checkmark" viewBox="0 0 24 24"><title>checkmark</title><g data-name="Layer 2"><g data-name="checkmark-circle"><path d="M9.71 11.29a1 1 0 0 0-1.42 1.42l3 3A1 1 0 0 0 12 16a1 1 0 0 0 .72-.34l7-8a1 1 0 0 0-1.5-1.32L12 13.54z"/><path d="M21 11a1 1 0 0 0-1 1 8 8 0 0 1-8 8A8 8 0 0 1 6.33 6.36 7.93 7.93 0 0 1 12 4a8.79 8.79 0 0 1 1.9.22 1 1 0 1 0 .47-1.94A10.54 10.54 0 0 0 12 2a10 10 0 0 0-7 17.09A9.93 9.93 0 0 0 12 22a10 10 0 0 0 10-10 1 1 0 0 0-1-1z"/></g></g></symbol><symbol id="sprite-close2" viewBox="0 0 19.995 20"><title>close2</title><path d="m19.502.489.001.001a1.666 1.666 0 0 1 .008 2.357L2.846 19.51a1.667 1.667 0 0 1-2.358-2.358l7.15-7.157-7.15-7.157a1.666 1.666 0 0 1 2.35-2.35l7.157 7.15 7.149-7.15h.001a1.666 1.666 0 0 1 2.357 0Zm-4.996 11.665 4.999 5a1.667 1.667 0 1 1-2.358 2.358l-5-5a1.667 1.667 0 0 1 2.358-2.357Z" fill="currentColor" fill-rule="evenodd"/></symbol><symbol fill="currentColor" id="sprite-email" viewBox="0 0 16 16"><title>email</title><path d="M.05 3.555A2 2 0 0 1 2 2h12a2 2 0 0 1 1.95 1.555L8 8.414.05 3.555ZM0 4.697v7.104l5.803-3.558L0 4.697ZM6.761 8.83l-6.57 4.027A2 2 0 0 0 2 14h12a2 2 0 0 0 1.808-1.144l-6.57-4.027L8 9.586l-1.239-.757Zm3.436-.586L16 11.801V4.697l-5.803 3.546Z"/></symbol><symbol fill="none" id="sprite-form-car" viewBox="0 0 16 16"><title>form-car</title><g clip-path="url(#a)"><path fill="#0063C8" d="m16 5.8-.4-.1H14c-.4-1-.9-2-1.4-2.4-2-1.3-7.2-1.3-9.2 0-.5.4-1 1.4-1.4 2.4H.4a.4.4 0 0 0-.4.5l.2 1.1c0 .2.2.3.4.3h.5C.7 8.1.4 8.8.4 9.4c0 .8.3 1.6.9 2V13c0 .4.3.7.6.7h1.5c.3 0 .6-.3.6-.7v-.6h8v.6c0 .4.3.7.6.7h1.5c.3 0 .6-.3.6-.7v-1.5a2.8 2.8 0 0 0 .2-3.9h.5c.2 0 .3-.1.4-.3l.2-1.1v-.4zM4 4.3c1.6-1 6.2-1 7.8 0 .3.2.7 1 1 2H3c.4-1 .8-1.8 1.1-2zM2.3 9.6a1.2 1.2 0 1 1 2.4 0 1.2 1.2 0 0 1-2.4 0zm10.2 1.2a1.2 1.2 0 1 1 0-2.4 1.2 1.2 0 0 1 0 2.4z"/></g><defs><clipPath id="a"><path fill="#fff" d="M0 0h16v16H0z"/></clipPath></defs></symbol><symbol fill="none" id="sprite-form-phone" viewBox="0 0 16 16"><title>form-phone</title><g clip-path="url(#a)"><path fill="#0063C8" d="m15.6 12.6-2.4-2.4c-.5-.5-1.3-.5-1.8 0L10 11.5l-.2-.2c-.8-.4-1.9-1-3-2.2-1.2-1-1.8-2.2-2.2-3V6l.8-.8.4-.4c.5-.5.5-1.4 0-1.9L3.4.4C2.9-.1 2-.1 1.6.4l-.7.7a4 4 0 0 0-.8 2C-.3 6 1 8.4 4.3 11.8 9 16.3 12.7 16 12.8 16a4.2 4.2 0 0 0 2-.9h.1l.7-.6c.5-.5.5-1.4 0-1.9z"/></g><defs><clipPath id="a"><path fill="#fff" d="M0 0h16v16H0z"/></clipPath></defs></symbol><symbol fill="currentColor" id="sprite-geo" viewBox="0 0 16 16"><title>geo</title><path d="M8 16s6-5.686 6-10A6 6 0 0 0 2 6c0 4.314 6 10 6 10zm0-7a3 3 0 1 1 0-6 3 3 0 0 1 0 6z"/></symbol><symbol id="sprite-input-phone" viewBox="0 0 75 70"><title>input-phone</title><path fill="#e5eded" d="M0 0h75v70H0z"/><path d="M49.191 38.91a14.712 14.712 0 0 1-4.541-.71 2.105 2.105 0 0 0-2.019.418l-2.864 2.122a15.682 15.682 0 0 1-7.115-6.983l2.098-2.738a1.994 1.994 0 0 0 .506-2.048 13.977 13.977 0 0 1-.726-4.465 2.027 2.027 0 0 0-2.044-2.006H27.81a2.027 2.027 0 0 0-2.044 2.006A23.239 23.239 0 0 0 49.191 47.5a2.027 2.027 0 0 0 2.044-2.006v-4.578a2.027 2.027 0 0 0-2.044-2.006Z" fill="#c0cdcd"/></symbol><symbol id="sprite-minus" viewBox="0 0 15 2"><title>minus</title><path fill="currentColor" d="M0 0h15v2H0z"/></symbol><symbol fill="none" id="sprite-phone" viewBox="0 0 26 26"><title>phone</title></symbol><symbol id="sprite-plus" viewBox="0 0 15 15"><title>plus</title><path fill="currentColor" d="M6.5 0h2v15h-2z"/><path fill="currentColor" d="M0 6.5h15v2H0z"/></symbol><symbol fill="none" id="sprite-polygon" viewBox="0 0 41 34"><title>polygon</title><path d="M4.65 0 0 34 41 0H4.65Z" fill="currentColor"/></symbol><symbol id="sprite-social-facebook" viewBox="0 0 68 68"><title>social-facebook</title><circle cx="34" cy="34" r="33.5" fill="none" stroke="#f1eaf1"/><path d="M34 17a17 17 0 1 0 17 17 17.02 17.02 0 0 0-17-17Zm4.228 17.599h-2.766v9.857h-4.098v-9.858h-1.948v-3.484h1.948v-2.253a3.844 3.844 0 0 1 4.136-4.136l3.037.012v3.382h-2.205a.835.835 0 0 0-.869.949v2.047h3.123Z" fill="#afafb9"/></symbol><symbol id="sprite-social-instagram" viewBox="0 0 69 68"><title>social-instagram</title><path d="M68.5 34c0 18.495-15.215 33.5-34 33.5S.5 52.495.5 34 15.715.5 34.5.5s34 15.005 34 33.5Z" fill="none" stroke="#f1eaf1"/><path d="M41.248 19.287H27.752a7.974 7.974 0 0 0-7.965 7.965v13.496a7.974 7.974 0 0 0 7.965 7.965h13.496a7.974 7.974 0 0 0 7.965-7.965V27.252a7.974 7.974 0 0 0-7.965-7.965ZM34.5 42.046A8.046 8.046 0 1 1 42.546 34a8.055 8.055 0 0 1-8.046 8.046Zm8.238-14.194a2.378 2.378 0 1 1 2.378-2.378 2.38 2.38 0 0 1-2.378 2.378Zm-8.238-.173A6.32 6.32 0 1 0 40.82 34a6.328 6.328 0 0 0-6.32-6.32Zm7.586-2.205a.652.652 0 1 1 .652.652.653.653 0 0 1-.652-.652Z" fill="#afafb9" fill-rule="evenodd"/></symbol><symbol fill="none" id="sprite-social-vk" viewBox="0 0 20 12"><title>social-vk</title><path d="M18.998 10.126a1.298 1.298 0 0 0-.062-.118c-.316-.569-.918-1.266-1.808-2.093l-.019-.019-.01-.009-.009-.01h-.01c-.403-.384-.659-.643-.766-.776-.196-.252-.24-.508-.133-.767.076-.195.36-.608.852-1.24.259-.334.464-.602.615-.804 1.092-1.452 1.566-2.38 1.42-2.783l-.056-.095c-.038-.057-.136-.109-.293-.156-.158-.047-.36-.055-.606-.024l-2.727.02a.354.354 0 0 0-.189.004l-.123.028-.048.024-.037.029a.42.42 0 0 0-.104.099.648.648 0 0 0-.095.166 15.464 15.464 0 0 1-1.013 2.13c-.233.39-.448.73-.644 1.017-.195.287-.36.499-.492.634a3.443 3.443 0 0 1-.36.327c-.107.082-.189.117-.246.104a7.008 7.008 0 0 1-.16-.038.63.63 0 0 1-.214-.232 1.04 1.04 0 0 1-.108-.369 4.026 4.026 0 0 1-.034-.383 8.054 8.054 0 0 1 .005-.455c.007-.196.01-.328.01-.397 0-.24.004-.5.014-.781l.023-.668c.007-.164.01-.337.01-.52s-.011-.327-.033-.431a1.471 1.471 0 0 0-.1-.303.51.51 0 0 0-.194-.227 1.09 1.09 0 0 0-.317-.128c-.334-.076-.76-.117-1.278-.123C8.485.746 7.731.822 7.397.986c-.133.07-.253.164-.36.284-.114.139-.13.215-.047.227.378.057.646.193.804.407l.057.114c.044.082.088.227.133.435.044.209.072.439.085.691.031.461.031.855 0 1.184-.032.328-.062.583-.09.766a1.537 1.537 0 0 1-.242.654.16.16 0 0 1-.047.047.71.71 0 0 1-.255.047c-.089 0-.196-.044-.322-.132a2.274 2.274 0 0 1-.393-.365 4.89 4.89 0 0 1-.46-.648c-.17-.278-.346-.606-.53-.985l-.15-.274a23.348 23.348 0 0 1-.389-.772c-.164-.338-.31-.664-.435-.98a.624.624 0 0 0-.228-.303l-.047-.028a.647.647 0 0 0-.151-.08 1.006 1.006 0 0 0-.218-.062l-2.594.019c-.265 0-.445.06-.54.18l-.037.056a.306.306 0 0 0-.029.152c0 .07.019.155.057.256.379.89.79 1.748 1.235 2.574.445.827.832 1.493 1.16 1.998.328.505.663.981 1.003 1.43.341.447.567.734.677.86.11.127.197.222.26.285l.237.227c.152.151.374.333.668.544.293.212.618.42.975.625.356.205.771.372 1.245.502.473.13.934.181 1.382.156h1.088c.221-.02.388-.088.502-.208l.038-.048a.626.626 0 0 0 .07-.175.96.96 0 0 0 .034-.26 3.118 3.118 0 0 1 .061-.734c.048-.217.101-.381.161-.492a1.211 1.211 0 0 1 .365-.416.612.612 0 0 1 .075-.033c.152-.05.33-.002.536.146.205.149.397.332.577.55.18.217.396.462.648.733.253.271.474.473.663.606l.19.114a2.3 2.3 0 0 0 .492.208c.201.063.378.079.53.047l2.423-.037c.24 0 .426-.04.559-.119.132-.079.21-.166.236-.26a.733.733 0 0 0 .005-.322 1.194 1.194 0 0 0-.066-.251Z" fill="currentColor"/></symbol><symbol fill="currentColor" id="sprite-social-whatsapp" viewBox="0 0 16 16"><title>social-whatsapp</title><path d="M13.601 2.326A7.854 7.854 0 0 0 7.994 0C3.627 0 .068 3.558.064 7.926c0 1.399.366 2.76 1.057 3.965L0 16l4.204-1.102a7.933 7.933 0 0 0 3.79.965h.004c4.368 0 7.926-3.558 7.93-7.93A7.898 7.898 0 0 0 13.6 2.326zM7.994 14.521a6.573 6.573 0 0 1-3.356-.92l-.24-.144-2.494.654.666-2.433-.156-.251a6.56 6.56 0 0 1-1.007-3.505c0-3.626 2.957-6.584 6.591-6.584a6.56 6.56 0 0 1 4.66 1.931 6.557 6.557 0 0 1 1.928 4.66c-.004 3.639-2.961 6.592-6.592 6.592zm3.615-4.934c-.197-.099-1.17-.578-1.353-.646-.182-.065-.315-.099-.445.099-.133.197-.513.646-.627.775-.114.133-.232.148-.43.05-.197-.1-.836-.308-1.592-.985-.59-.525-.985-1.175-1.103-1.372-.114-.198-.011-.304.088-.403.087-.088.197-.232.296-.346.1-.114.133-.198.198-.33.065-.134.034-.248-.015-.347-.05-.099-.445-1.076-.612-1.47-.16-.389-.323-.335-.445-.34-.114-.007-.247-.007-.38-.007a.729.729 0 0 0-.529.247c-.182.198-.691.677-.691 1.654 0 .977.71 1.916.81 2.049.098.133 1.394 2.132 3.383 2.992.47.205.84.326 1.129.418.475.152.904.129 1.246.08.38-.058 1.171-.48 1.338-.943.164-.464.164-.86.114-.943-.049-.084-.182-.133-.38-.232z"/></symbol><symbol fill="currentColor" id="sprite-social-youtube" viewBox="0 0 16 16"><title>social-youtube</title><path d="M8.051 1.999h.089c.822.003 4.987.033 6.11.335a2.01 2.01 0 0 1 1.415 1.42c.101.38.172.883.22 1.402l.01.104.022.26.008.104c.065.914.073 1.77.074 1.957v.075c-.001.194-.01 1.108-.082 2.06l-.008.105-.009.104c-.05.572-.124 1.14-.235 1.558a2.007 2.007 0 0 1-1.415 1.42c-1.16.312-5.569.334-6.18.335h-.142c-.309 0-1.587-.006-2.927-.052l-.17-.006-.087-.004-.171-.007-.171-.007c-1.11-.049-2.167-.128-2.654-.26a2.007 2.007 0 0 1-1.415-1.419c-.111-.417-.185-.986-.235-1.558L.09 9.82l-.008-.104A31.4 31.4 0 0 1 0 7.68v-.123c.002-.215.01-.958.064-1.778l.007-.103.003-.052.008-.104.022-.26.01-.104c.048-.519.119-1.023.22-1.402a2.007 2.007 0 0 1 1.415-1.42c.487-.13 1.544-.21 2.654-.26l.17-.007.172-.006.086-.003.171-.007A99.788 99.788 0 0 1 7.858 2h.193zM6.4 5.209v4.818l4.157-2.408L6.4 5.209z"/></symbol><symbol id="sprite-splash-left-p" viewBox="0 0 15.455 27.54"><title>splash-left-p</title><path d="M13.2 11.997h-12a1.251 1.251 0 0 0 0 2.5h12a1.251 1.251 0 0 0 0-2.5Zm.1 6.9-6.5 6.5c-1.1 1.1.6 2.9 1.8 1.8l6.5-6.5c1.1-1.2-.6-3-1.8-1.8Zm-.2-13c-1.8-1.9-3.7-3.7-5.5-5.5-1.1-1.2-2.9.6-1.8 1.7l5.5 5.5a1.238 1.238 0 0 0 1.8-1.7Z" fill="currentColor"/></symbol><symbol id="sprite-splash-right-p" viewBox="0 0 15.443 27.498"><title>splash-right-p</title><path d="M2.243 15.543h12a1.251 1.251 0 0 0 0-2.5h-12a1.251 1.251 0 0 0 0 2.5Zm-.1-6.9 6.5-6.5c1.1-1.1-.6-2.9-1.8-1.8l-6.5 6.5c-1.1 1.2.7 3 1.8 1.8Zm.2 13 5.5 5.5c1.1 1.1 2.9-.6 1.8-1.8l-5.5-5.5c-1.1-1.1-2.9.7-1.8 1.8Z" fill="currentColor"/></symbol><symbol fill="currentColor" id="sprite-user" viewBox="0 0 16 16"><title>user</title><path d="M3 14s-1 0-1-1 1-4 6-4 6 3 6 4-1 1-1 1H3zm5-6a3 3 0 1 0 0-6 3 3 0 0 0 0 6z"/></symbol><symbol id="sprite-whatsapp" viewBox="0 0 46.796 47"><title>whatsapp</title><path d="M1 47a1 1 0 0 1-.965-1.264l3.056-11.158a23.306 23.306 0 1 1 20.4 12.036h-.01a23.35 23.35 0 0 1-10.783-2.648L1.254 46.967A1.009 1.009 0 0 1 1 47Z" fill="#e5e5e5"/><path d="m1 46 3.164-11.555a22.305 22.305 0 1 1 19.328 11.169h-.01a22.285 22.285 0 0 1-10.658-2.715Zm12.371-7.137.678.401a18.514 18.514 0 0 0 9.436 2.584h.007a18.537 18.537 0 1 0-15.705-8.686l.441.701-1.873 6.84Z" fill="#fff"/><path d="M10.79 42.858a5.38 5.38 0 0 1-6.553-6.626 6.23 6.23 0 0 0-.426-4.166A21.534 21.534 0 1 1 23.49 44.848h-.01a21.551 21.551 0 0 1-8.307-1.668 6.442 6.442 0 0 0-4.11-.394Z" fill="#16c512"/><path d="m1 46 3.164-11.555a22.305 22.305 0 1 1 19.328 11.169h-.01a22.285 22.285 0 0 1-10.658-2.715Zm12.371-7.137.678.401a18.514 18.514 0 0 0 9.436 2.584h.007a18.537 18.537 0 1 0-15.705-8.686l.441.701-1.873 6.84Z" fill="#fff"/><path d="M17.918 13.976c-.417-.928-.857-.947-1.254-.963-.326-.014-.698-.013-1.069-.013a2.048 2.048 0 0 0-1.486.698 6.247 6.247 0 0 0-1.951 4.647c0 2.742 1.997 5.392 2.276 5.764s3.855 6.179 9.52 8.413c4.708 1.857 5.665 1.487 6.687 1.394s3.298-1.348 3.762-2.65a4.654 4.654 0 0 0 .325-2.65c-.14-.232-.51-.371-1.068-.65s-3.297-1.627-3.808-1.813-.883-.278-1.254.28-1.44 1.812-1.764 2.184-.65.419-1.208.14a15.237 15.237 0 0 1-4.482-2.767 16.791 16.791 0 0 1-3.1-3.859c-.325-.557-.006-.833.245-1.137a16.82 16.82 0 0 0 1.392-1.905 1.027 1.027 0 0 0-.046-.977c-.14-.278-1.222-3.034-1.717-4.136Z" fill="#fff" fill-rule="evenodd"/></symbol></svg>