<svg xmlns="http://www.w3.org/2000/svg" width="12.1493" height="14.6275" viewBox="0 0 12.1493 14.6275">
  <path d="M6.353,1.0085,6.358.9857v9.788L3.2743,7.6967a.8081.8081,0,0,0-1.1361,0l-.479.4788A.801.801,0,0,0,1.6586,9.306l5.274,5.2745a.8061.8061,0,0,0,1.1344,0L13.3415,9.306a.8017.8017,0,0,0,0-1.13l-.479-.4788a.792.792,0,0,0-.5651-.2333.7687.7687,0,0,0-.5545.2333l-3.101,3.1117V.9976A.829.829,0,0,0,7.8213.1863H7.1438A.813.813,0,0,0,6.353,1.0085Z" transform="translate(-1.4254 -0.1863)" fill="currentColor"/>
</svg>
