<svg xmlns="http://www.w3.org/2000/svg" width="19.9952" height="20.0004" viewBox="0 0 19.9952 20.0004">
  <path d="M19.502.4888,19.5033.49a1.6663,1.6663,0,0,1,.0077,2.3565h0L2.8463,19.51a1.6673,1.6673,0,0,1-2.358-2.3579l7.1489-7.157L.4883,2.8383a1.6664,1.6664,0,0,1,2.35-2.35L9.9951,7.6374,17.144.4887l.0013-.0013a1.6664,1.6664,0,0,1,2.3566.0013ZM14.5055,12.1541l4.9991,5a1.6673,1.6673,0,1,1-2.3579,2.358l-4.9991-4.9994a1.6674,1.6674,0,0,1,2.3579-2.3581Z" transform="translate(0 0)" fill="currentColor" fill-rule="evenodd"/>
</svg>
