<svg xmlns="http://www.w3.org/2000/svg" width="75" height="70" viewBox="0 0 75 70">
  <rect width="75" height="70" fill="#e5eded"/>
  <path d="M49.191,38.91a14.7121,14.7121,0,0,1-4.541-.71,2.1049,2.1049,0,0,0-2.0188.4177L39.7674,40.74a15.6821,15.6821,0,0,1-7.1156-6.983L34.75,31.0186a1.9945,1.9945,0,0,0,.5063-2.0474,13.9766,13.9766,0,0,1-.7261-4.465A2.0274,2.0274,0,0,0,32.4864,22.5H27.809a2.0275,2.0275,0,0,0-2.0437,2.0061A23.2389,23.2389,0,0,0,49.191,47.5a2.0275,2.0275,0,0,0,2.0437-2.0061V40.9156A2.0275,2.0275,0,0,0,49.191,38.91Z" fill="#c0cdcd"/>
</svg>
