<svg width="23" height="23" viewBox="0 0 23 23" fill="none" xmlns="http://www.w3.org/2000/svg">
<path d="M16.8391 14.651C16.6777 14.4905 16.4593 14.4005 16.2317 14.4005C16.0041 14.4005 15.7857 14.4905 15.6243 14.651L14.7628 15.5126C14.4148 15.8454 13.9519 16.0311 13.4704 16.0311C12.9889 16.0311 12.526 15.8454 12.1781 15.5126L7.59462 10.9894C7.39821 10.7941 7.24234 10.5618 7.13599 10.306C7.02963 10.0502 6.97488 9.77594 6.97488 9.49892C6.97488 9.2219 7.02963 8.94761 7.13599 8.69182C7.24234 8.43603 7.39821 8.20378 7.59462 8.00843L8.27525 7.24164C8.2956 7.21492 8.31293 7.18602 8.32694 7.15549C8.49341 7.11085 8.6413 7.01427 8.7491 6.87979C8.89095 6.70232 8.95695 6.476 8.93275 6.2501C8.90854 6.02421 8.79609 5.81701 8.61987 5.67362L4.5878 2.37386C4.42213 2.239 4.21227 2.1705 3.99894 2.18164C3.78561 2.19278 3.58403 2.28278 3.43331 2.43417L2.57176 3.29573C0.925028 4.94359 0 7.1779 0 9.50753C0 11.8372 0.925028 14.0715 2.57176 15.7193L7.30169 20.4665C8.93092 22.089 11.1366 23 13.436 23C15.7353 23 17.941 22.089 19.5702 20.4665L20.4921 19.5446C20.5728 19.4645 20.6369 19.3693 20.6807 19.2643C20.7244 19.1593 20.7469 19.0467 20.7469 18.9329C20.7469 18.8192 20.7244 18.7066 20.6807 18.6016C20.6369 18.4966 20.5728 18.4013 20.4921 18.3212L16.8391 14.651ZM18.3468 19.2345C17.0423 20.5329 15.2766 21.2619 13.436 21.2619C11.5954 21.2619 9.82965 20.5329 8.5251 19.2345L3.80378 14.5132C2.48324 13.1888 1.74169 11.395 1.74169 9.52476C1.74169 7.65457 2.48324 5.86068 3.80378 4.53637L4.10532 4.23482L6.80199 6.38009L6.40567 6.83671C5.69437 7.55048 5.29497 8.51708 5.29497 9.52476C5.29497 10.5324 5.69437 11.499 6.40567 12.2128L10.9547 16.7618C11.283 17.0926 11.6736 17.3552 12.1039 17.5344C12.5342 17.7136 12.9957 17.8058 13.4618 17.8058C13.9279 17.8058 14.3894 17.7136 14.8197 17.5344C15.25 17.3552 15.6406 17.0926 15.9689 16.7618L16.2532 16.4775L18.6914 18.9157L18.3468 19.2345ZM17.5283 10.2054C18.1831 9.2146 17.873 8.37028 16.2274 6.75917C14.5818 5.14807 13.7461 4.80345 12.7812 5.45823C12.685 5.52272 12.5771 5.56764 12.4635 5.59041C12.35 5.61319 12.2331 5.61339 12.1195 5.59099C12.0059 5.56859 11.8978 5.52403 11.8014 5.45986C11.7051 5.39569 11.6223 5.31316 11.5578 5.21699C11.4933 5.12082 11.4484 5.01289 11.4256 4.89936C11.4028 4.78584 11.4026 4.66893 11.425 4.55533C11.4474 4.44172 11.492 4.33364 11.5561 4.23726C11.6203 4.14088 11.7028 4.05808 11.799 3.99359C14.2889 2.34802 16.4169 4.48467 17.4508 5.50992C18.4847 6.53517 20.5869 8.67183 18.9671 11.1617C18.8881 11.2786 18.7816 11.3744 18.6569 11.4405C18.5322 11.5066 18.3932 11.541 18.252 11.5408C18.0811 11.5437 17.9132 11.4958 17.7696 11.403C17.6749 11.3404 17.5935 11.2597 17.53 11.1655C17.4666 11.0714 17.4224 10.9656 17.4 10.8543C17.3776 10.743 17.3774 10.6284 17.3994 10.517C17.4214 10.4057 17.4653 10.2998 17.5283 10.2054ZM21.3881 13.6516C21.307 13.7516 21.2046 13.8321 21.0883 13.8872C20.972 13.9424 20.8448 13.9708 20.7161 13.9704C20.5188 13.9712 20.3272 13.9043 20.1733 13.7808C19.9971 13.6374 19.8846 13.4303 19.8604 13.2044C19.8362 12.9785 19.9022 12.7521 20.0441 12.5747C22.8269 9.12845 20.0441 5.60469 18.6656 4.26067C17.2871 2.91664 13.8323 0.0993612 10.3516 2.88218C10.1741 3.02403 9.94781 3.09003 9.72191 3.06583C9.49601 3.04162 9.28881 2.92917 9.14542 2.75295C9.07385 2.66482 9.02041 2.56342 8.98816 2.45457C8.95591 2.34572 8.94549 2.23157 8.9575 2.11869C8.96951 2.0058 9.00371 1.8964 9.05814 1.79677C9.11257 1.69714 9.18615 1.60925 9.27465 1.53816C12.3935 -0.96035 16.46 -0.383109 19.889 3.03726C23.318 6.45763 23.8866 10.5672 21.3881 13.6861V13.6516Z" fill="currentColor"/>
</svg>
