<svg xmlns="http://www.w3.org/2000/svg" width="68" height="68" viewBox="0 0 68 68">
  <g>
    <path d="M34.0044,17h-.0088A17.27,17.27,0,0,0,16.5,34a16.5522,16.5522,0,0,0,3.3316,9.9641L17.6506,50.28l6.7266-2.0888A17.715,17.715,0,0,0,34.0044,51,17.2718,17.2718,0,0,0,51.5,34,17.2718,17.2718,0,0,0,34.0044,17ZM44.1872,41.0061c-.4222,1.1581-2.0978,2.1187-3.4344,2.3991-.9144.1892-2.1087.34-6.1294-1.2792-5.1428-2.07-8.4547-7.1464-8.7128-7.4758-.2472-.3293-2.0781-2.6881-2.0781-5.1276a5.3643,5.3643,0,0,1,1.7894-4.1373,2.5881,2.5881,0,0,1,1.7894-.61c.2165,0,.4112.0106.5862.0191.5141.0213.7722.051,1.1112.8394.4222.9881,1.45,3.4276,1.5729,3.6784a.987.987,0,0,1,.0743.92,2.938,2.938,0,0,1-.5665.78c-.2582.289-.5032.51-.7613.82-.2362.27-.5031.5589-.2056,1.0582a15.1608,15.1608,0,0,0,2.8394,3.4277,12.9539,12.9539,0,0,0,4.1037,2.4586,1.1314,1.1314,0,0,0,1.2338-.1891,20.6437,20.6437,0,0,0,1.3672-1.7595.9924.9924,0,0,1,1.2556-.37c.4725.1594,2.9728,1.36,3.4869,1.6086.514.2508.8531.37.9778.58A4.1208,4.1208,0,0,1,44.1872,41.0061Z" fill="#afafb9"/>
    <path d="M67.5,34A33.5,33.5,0,1,1,34,.5,33.5,33.5,0,0,1,67.5,34Z" fill="none" stroke="#f1eaf1"/>
  </g>
</svg>
