<svg xmlns="http://www.w3.org/2000/svg" width="68" height="68" viewBox="0 0 68 68">
  <g>
    <path d="M49.8031,42.6519a15.2549,15.2549,0,0,0-3.3983-3.931c-2.8658-2.66-2.4809-2.2285.9709-6.8289,2.1023-2.8018,2.9428-4.5127,2.68-5.2442-.25-.6972-1.7965-.5133-1.7965-.5133l-5.1414.03a1.1749,1.1749,0,0,0-.6651.1176,1.4479,1.4479,0,0,0-.4534.5518,29.7868,29.7868,0,0,1-1.9012,4.0122c-2.2906,3.89-3.208,4.0957-3.5823,3.854-.87-.5625-.6523-2.2628-.6523-3.469,0-3.7706.571-5.3425-1.1142-5.7489a8.8256,8.8256,0,0,0-2.4018-.2395,11.1053,11.1053,0,0,0-4.2687.4363c-.586.2866-1.0373.926-.7614.9624a2.3063,2.3063,0,0,1,1.5185.7635,4.9549,4.9549,0,0,1,.509,2.3291s.3036,4.4379-.7079,4.99c-.6951.3786-1.6468-.3935-3.6892-3.9245a32.9218,32.9218,0,0,1-1.8372-3.807,1.5185,1.5185,0,0,0-.4234-.571,2.1321,2.1321,0,0,0-.7913-.3187l-4.889.03s-.7336.0214-1.003.34c-.24.2845-.0193.87-.0193.87s3.8282,8.9549,8.1612,13.47a11.7436,11.7436,0,0,0,8.4883,3.8668h2.0446a1.7232,1.7232,0,0,0,.9324-.4085,1.4889,1.4889,0,0,0,.28-.8982s-.0406-2.744,1.234-3.1482c1.2554-.3978,2.868,2.652,4.5768,3.8261a3.2369,3.2369,0,0,0,2.2734.693l4.57-.0642S50.9366,44.5319,49.8031,42.6519Z" fill="#afafb9"/>
    <circle cx="34" cy="34" r="33.5" fill="none" stroke="#f1eaf1"/>
  </g>
</svg>
