<svg xmlns="http://www.w3.org/2000/svg" width="68" height="68" viewBox="0 0 68 68">
  <g>
    <path d="M50.3,25.7554a4.2769,4.2769,0,0,0-2.9966-3.0215C44.6423,22,34,22,34,22s-10.6422,0-13.3028.7061A4.364,4.364,0,0,0,17.7,25.7554,45.61,45.61,0,0,0,17,34a45.4414,45.4414,0,0,0,.7,8.2446,4.2778,4.2778,0,0,0,2.9968,3.0213C23.3854,46,34,46,34,46s10.6423,0,13.3029-.7061A4.2772,4.2772,0,0,0,50.3,42.2728a45.6229,45.6229,0,0,0,.7-8.2446S51.0279,28.4376,50.3,25.7554ZM30.6112,39.1388V28.8612L39.4611,34Z" fill="#afafb9"/>
    <circle cx="34" cy="34" r="33.5" fill="none" stroke="#f1eaf1"/>
  </g>
</svg>
