<svg xmlns="http://www.w3.org/2000/svg" width="15.443" height="27.4981" viewBox="0 0 15.443 27.4981">
  <g>
    <path d="M2.5215,15.7942h12a1.251,1.251,0,0,0,0-2.5h-12A1.251,1.251,0,0,0,2.5215,15.7942Z" transform="translate(-0.2785 -0.2509)" fill="currentColor"/>
    <path d="M2.4218,8.8942l6.5-6.5c1.1-1.1-.6-2.9-1.8-1.8l-6.5,6.5C-.4782,8.2942,1.3218,10.0942,2.4218,8.8942Z" transform="translate(-0.2785 -0.2509)" fill="currentColor"/>
    <path d="M2.6218,21.8942l5.5,5.5c1.1,1.1,2.9-.6,1.8-1.8l-5.5-5.5C3.3218,18.9942,1.5218,20.7942,2.6218,21.8942Z" transform="translate(-0.2785 -0.2509)" fill="currentColor"/>
  </g>
</svg>
