<svg xmlns="http://www.w3.org/2000/svg" width="46.796" height="47" viewBox="0 0 46.796 47">
  <g>
    <path d="M1.1021,47a1,1,0,0,1-.9646-1.264L3.193,34.5784A23.3056,23.3056,0,1,1,23.5938,46.6138h-.01A23.35,23.35,0,0,1,12.8005,43.966L1.3556,46.9674A1.0087,1.0087,0,0,1,1.1021,47Z" transform="translate(-0.102)" fill="#e5e5e5"/>
    <path d="M1.1021,46,4.2662,34.4453A22.3055,22.3055,0,1,1,23.5938,45.6137h-.01A22.2849,22.2849,0,0,1,12.926,42.8992Zm12.3714-7.1372.6774.4012a18.5137,18.5137,0,0,0,9.4357,2.584h.0072a18.537,18.537,0,1,0-15.7045-8.686l.441.7014L6.4571,40.7022Z" transform="translate(-0.102)" fill="#fff"/>
    <path d="M10.8927,42.8575a5.38,5.38,0,0,1-6.5536-6.6252,6.23,6.23,0,0,0-.4259-4.1662A21.5335,21.5335,0,1,1,23.5907,44.8482h-.01A21.5513,21.5513,0,0,1,15.2735,43.18a6.4423,6.4423,0,0,0-4.1089-.3936Z" transform="translate(-0.102)" fill="#16c512"/>
    <path d="M1.1021,46,4.2662,34.4453A22.3055,22.3055,0,1,1,23.5938,45.6137h-.01A22.2849,22.2849,0,0,1,12.926,42.8992Zm12.3714-7.1372.6774.4012a18.5137,18.5137,0,0,0,9.4357,2.584h.0072a18.537,18.537,0,1,0-15.7045-8.686l.441.7014L6.4571,40.7022Z" transform="translate(-0.102)" fill="#fff"/>
    <path d="M18.02,13.9757c-.4174-.928-.857-.9467-1.2543-.9628C16.44,12.9989,16.0684,13,15.6973,13a2.0484,2.0484,0,0,0-1.486.6975A6.2474,6.2474,0,0,0,12.26,18.345c0,2.7424,1.9973,5.392,2.2759,5.7642s3.8555,6.1787,9.52,8.4127c4.7078,1.8567,5.6656,1.4874,6.6875,1.3945s3.2972-1.3483,3.7615-2.65a4.6535,4.6535,0,0,0,.3253-2.65c-.1395-.232-.511-.3715-1.0682-.65s-3.2972-1.6272-3.8082-1.813-.8824-.2786-1.2539.2794-1.439,1.8122-1.7642,2.1837-.6505.4192-1.2077.14a15.2371,15.2371,0,0,1-4.4816-2.7661,16.7915,16.7915,0,0,1-3.1006-3.8594c-.3249-.5572-.0054-.8326.2449-1.137a16.8191,16.8191,0,0,0,1.3927-1.9055,1.0271,1.0271,0,0,0-.0463-.9765C19.5979,17.834,18.5147,15.078,18.02,13.9757Z" transform="translate(-0.102)" fill="#fff" fill-rule="evenodd"/>
  </g>
</svg>
